<svg width="17" height="20" viewBox="0 0 17 20" fill="none" xmlns="http://www.w3.org/2000/svg">
<path d="M8.96971 4.35355C9.16497 4.15829 9.16497 3.84171 8.96971 3.64645L5.78773 0.464466C5.59247 0.269204 5.27588 0.269204 5.08062 0.464466C4.88536 0.659728 4.88536 0.976311 5.08062 1.17157L7.90905 4L5.08062 6.82843C4.88536 7.02369 4.88536 7.34027 5.08062 7.53553C5.27588 7.7308 5.59247 7.7308 5.78773 7.53553L8.96971 4.35355ZM15.7323 11.6162C15.7323 15.5463 12.5463 18.7323 8.61616 18.7323V19.7323C13.0986 19.7323 16.7323 16.0986 16.7323 11.6162H15.7323ZM8.61616 18.7323C4.68601 18.7323 1.5 15.5463 1.5 11.6162H0.5C0.5 16.0986 4.13373 19.7323 8.61616 19.7323V18.7323ZM1.5 11.6162C1.5 7.68601 4.68601 4.5 8.61616 4.5V3.5C4.13373 3.5 0.5 7.13373 0.5 11.6162H1.5ZM13.3891 6.33793C14.8289 7.64077 15.7323 9.52262 15.7323 11.6162H16.7323C16.7323 9.22836 15.7005 7.08086 14.06 5.59644L13.3891 6.33793Z" fill="#181818"/>
<path d="M7.10791 9.6123V14.6162H6.47559V10.4019L5.20068 10.8667V10.2959L7.00879 9.6123H7.10791ZM12.0913 11.7314V12.4902C12.0913 12.8981 12.0549 13.2422 11.9819 13.5225C11.909 13.8027 11.8042 14.0283 11.6675 14.1992C11.5308 14.3701 11.3656 14.4943 11.1719 14.5718C10.9805 14.647 10.764 14.6846 10.5225 14.6846C10.3311 14.6846 10.1545 14.6606 9.99268 14.6128C9.83089 14.5649 9.68506 14.4886 9.55518 14.3838C9.42757 14.2767 9.3182 14.1377 9.22705 13.9668C9.1359 13.7959 9.06641 13.5885 9.01855 13.3447C8.9707 13.1009 8.94678 12.8161 8.94678 12.4902V11.7314C8.94678 11.3236 8.98324 10.9818 9.05615 10.7061C9.13135 10.4303 9.2373 10.2093 9.37402 10.043C9.51074 9.87435 9.6748 9.75358 9.86621 9.68066C10.0599 9.60775 10.2764 9.57129 10.5156 9.57129C10.7093 9.57129 10.887 9.59521 11.0488 9.64307C11.2129 9.68864 11.3587 9.7627 11.4863 9.86523C11.6139 9.96549 11.7222 10.0999 11.811 10.2686C11.9022 10.4349 11.9717 10.6388 12.0195 10.8804C12.0674 11.1219 12.0913 11.4056 12.0913 11.7314ZM11.4556 12.5928V11.6255C11.4556 11.4022 11.4419 11.2062 11.4146 11.0376C11.3895 10.8667 11.3519 10.7209 11.3018 10.6001C11.2516 10.4793 11.1878 10.3813 11.1104 10.3062C11.0352 10.231 10.9474 10.1763 10.8472 10.1421C10.7492 10.1056 10.6387 10.0874 10.5156 10.0874C10.3652 10.0874 10.2319 10.1159 10.1157 10.1729C9.99951 10.2275 9.90153 10.3153 9.82178 10.436C9.7443 10.5568 9.68506 10.7152 9.64404 10.9111C9.60303 11.1071 9.58252 11.3452 9.58252 11.6255V12.5928C9.58252 12.8161 9.59505 13.0132 9.62012 13.1841C9.64746 13.355 9.68734 13.5031 9.73975 13.6284C9.79215 13.7515 9.85596 13.8529 9.93115 13.9326C10.0063 14.0124 10.0929 14.0716 10.1909 14.1104C10.2912 14.1468 10.4017 14.165 10.5225 14.165C10.6774 14.165 10.813 14.1354 10.9292 14.0762C11.0454 14.0169 11.1423 13.9246 11.2197 13.7993C11.2995 13.6717 11.3587 13.5088 11.3975 13.3105C11.4362 13.11 11.4556 12.8708 11.4556 12.5928Z" fill="#181818"/>
</svg>
