<svg width="17" height="20" viewBox="0 0 17 20" fill="none" xmlns="http://www.w3.org/2000/svg">
<path d="M8.26271 4.35355C8.06745 4.15829 8.06745 3.84171 8.26271 3.64645L11.4447 0.464466C11.64 0.269204 11.9565 0.269204 12.1518 0.464466C12.3471 0.659728 12.3471 0.976311 12.1518 1.17157L9.32337 4L12.1518 6.82843C12.3471 7.02369 12.3471 7.34027 12.1518 7.53553C11.9565 7.7308 11.64 7.7308 11.4447 7.53553L8.26271 4.35355ZM1.50011 11.6162C1.50011 15.5463 4.68612 18.7323 8.61627 18.7323V19.7323C4.13384 19.7323 0.50011 16.0986 0.50011 11.6162H1.50011ZM8.61627 18.7323C12.5464 18.7323 15.7324 15.5463 15.7324 11.6162H16.7324C16.7324 16.0986 13.0987 19.7323 8.61627 19.7323V18.7323ZM15.7324 11.6162C15.7324 7.68601 12.5464 4.5 8.61627 4.5V3.5C13.0987 3.5 16.7324 7.13373 16.7324 11.6162H15.7324ZM3.84333 6.33793C2.40352 7.64077 1.50011 9.52262 1.50011 11.6162H0.50011C0.50011 9.22836 1.53189 7.08086 3.17237 5.59644L3.84333 6.33793Z" fill="#181818"/>
<path d="M7.10791 9.6123V14.6162H6.47559V10.4019L5.20068 10.8667V10.2959L7.00879 9.6123H7.10791ZM12.0913 11.7314V12.4902C12.0913 12.8981 12.0549 13.2422 11.9819 13.5225C11.909 13.8027 11.8042 14.0283 11.6675 14.1992C11.5308 14.3701 11.3656 14.4943 11.1719 14.5718C10.9805 14.647 10.764 14.6846 10.5225 14.6846C10.3311 14.6846 10.1545 14.6606 9.99268 14.6128C9.83089 14.5649 9.68506 14.4886 9.55518 14.3838C9.42757 14.2767 9.3182 14.1377 9.22705 13.9668C9.1359 13.7959 9.06641 13.5885 9.01855 13.3447C8.9707 13.1009 8.94678 12.8161 8.94678 12.4902V11.7314C8.94678 11.3236 8.98324 10.9818 9.05615 10.7061C9.13135 10.4303 9.2373 10.2093 9.37402 10.043C9.51074 9.87435 9.6748 9.75358 9.86621 9.68066C10.0599 9.60775 10.2764 9.57129 10.5156 9.57129C10.7093 9.57129 10.887 9.59521 11.0488 9.64307C11.2129 9.68864 11.3587 9.7627 11.4863 9.86523C11.6139 9.96549 11.7222 10.0999 11.811 10.2686C11.9022 10.4349 11.9717 10.6388 12.0195 10.8804C12.0674 11.1219 12.0913 11.4056 12.0913 11.7314ZM11.4556 12.5928V11.6255C11.4556 11.4022 11.4419 11.2062 11.4146 11.0376C11.3895 10.8667 11.3519 10.7209 11.3018 10.6001C11.2516 10.4793 11.1878 10.3813 11.1104 10.3062C11.0352 10.231 10.9474 10.1763 10.8472 10.1421C10.7492 10.1056 10.6387 10.0874 10.5156 10.0874C10.3652 10.0874 10.2319 10.1159 10.1157 10.1729C9.99951 10.2275 9.90153 10.3153 9.82178 10.436C9.7443 10.5568 9.68506 10.7152 9.64404 10.9111C9.60303 11.1071 9.58252 11.3452 9.58252 11.6255V12.5928C9.58252 12.8161 9.59505 13.0132 9.62012 13.1841C9.64746 13.355 9.68734 13.5031 9.73975 13.6284C9.79215 13.7515 9.85596 13.8529 9.93115 13.9326C10.0063 14.0124 10.0929 14.0716 10.1909 14.1104C10.2912 14.1468 10.4017 14.165 10.5225 14.165C10.6774 14.165 10.813 14.1354 10.9292 14.0762C11.0454 14.0169 11.1423 13.9246 11.2197 13.7993C11.2995 13.6717 11.3587 13.5088 11.3975 13.3105C11.4362 13.11 11.4556 12.8708 11.4556 12.5928Z" fill="#181818"/>
</svg>
