<svg width="20" height="20" viewBox="0 0 20 20" fill="none" xmlns="http://www.w3.org/2000/svg">
<path d="M9.85337 19.7067C15.2952 19.7067 19.7067 15.2952 19.7067 9.85337C19.7067 4.41151 15.2952 0 9.85337 0C4.41151 0 0 4.41151 0 9.85337C0 15.2952 4.41151 19.7067 9.85337 19.7067Z" fill="white"/>
<path d="M6.28441 8.63346H7.83408V13.6165H6.28441V8.63346ZM7.05651 6.15837C7.23412 6.15837 7.40775 6.21104 7.55543 6.30972C7.70311 6.4084 7.81822 6.54865 7.88619 6.71275C7.95416 6.87684 7.97194 7.05741 7.93729 7.23161C7.90264 7.40582 7.81711 7.56583 7.69152 7.69142C7.56592 7.81702 7.40591 7.90255 7.2317 7.9372C7.0575 7.97185 6.87694 7.95407 6.71284 7.8861C6.54874 7.81813 6.40849 7.70302 6.30981 7.55534C6.21113 7.40766 6.15846 7.23403 6.15846 7.05641C6.15774 6.93828 6.18047 6.82117 6.22534 6.71189C6.27022 6.60261 6.33634 6.50332 6.41987 6.41978C6.50341 6.33625 6.6027 6.27012 6.71198 6.22525C6.82127 6.18038 6.93837 6.15765 7.05651 6.15837Z" fill="#2C203F"/>
<path d="M8.80322 8.63324H10.2872V9.31225C10.4397 9.05652 10.6588 8.84705 10.9212 8.70623C11.1835 8.56541 11.4792 8.49854 11.7766 8.51277C13.3427 8.51277 13.6329 9.54223 13.6329 10.8838V13.6218H12.0833V11.1905C12.0833 10.6429 12.0833 9.87079 11.2783 9.87079C10.4734 9.87079 10.3529 10.5005 10.3529 11.1521V13.6163H8.80322V8.63324Z" fill="#2C203F"/>
</svg>
