<svg width="23" height="27" viewBox="0 0 23 27" fill="none" xmlns="http://www.w3.org/2000/svg">
<path d="M5.07214 11.3765H8.02323C8.02558 11.3872 8.02723 11.398 8.02817 11.4088C8.02817 11.5114 8.03045 11.614 8.03045 11.7162C8.03045 11.7705 8.02285 11.7773 7.96853 11.7796C7.92332 11.7815 7.87811 11.7823 7.8329 11.7796C7.82379 11.7788 7.8147 11.7814 7.80731 11.7867C7.79991 11.7921 7.7947 11.8 7.79263 11.8089C7.72914 11.9947 7.65298 12.176 7.56469 12.3514C7.43954 12.5915 7.25533 12.7959 7.0294 12.9452C6.97811 12.979 6.92759 13.0139 6.8706 13.0523C6.90023 13.0713 6.92341 13.0876 6.94658 13.1021C7.06414 13.1727 7.1728 13.2571 7.27026 13.3536C7.37485 13.453 7.45436 13.5758 7.50224 13.7119C7.55012 13.848 7.56501 13.9936 7.54569 14.1365C7.51682 14.3907 7.41348 14.605 7.20834 14.763C7.05918 14.8782 6.87868 14.9456 6.69053 14.9564C6.45309 14.972 6.21831 14.9685 5.98619 14.8983C5.72116 14.815 5.48348 14.6619 5.29818 14.4549C5.10823 14.2509 4.98552 14.0066 4.89092 13.7479C4.79399 13.4699 4.7311 13.1813 4.70363 12.8882C4.66964 12.537 4.65556 12.1841 4.66146 11.8313V11.7796C4.60827 11.7796 4.55737 11.7815 4.50684 11.7796C4.39667 11.7758 4.40844 11.783 4.4054 11.6793C4.40236 11.5756 4.4054 11.4822 4.4054 11.3754H4.65804C4.67438 11.2736 4.68729 11.1782 4.70477 11.0836C4.74692 10.823 4.84503 10.5745 4.99236 10.3554C5.09721 10.202 5.23283 10.0722 5.39058 9.97405C5.54834 9.87595 5.72478 9.81174 5.90868 9.7855C6.1652 9.73775 6.42943 9.75234 6.67913 9.82805C6.88316 9.89317 7.06909 10.0052 7.22201 10.1551L7.32117 10.2501C7.33295 10.2327 7.34282 10.2186 7.35232 10.2038C7.54904 9.88997 7.84656 9.65233 8.19609 9.52983C8.33552 9.48015 8.48319 9.45771 8.63108 9.46372C8.86656 9.46721 9.099 9.51744 9.31491 9.61151C9.58926 9.73815 9.82635 9.93337 10.0033 10.1783C10.1256 10.3398 10.2312 10.5119 10.2787 10.7102C10.2926 10.7739 10.2987 10.8391 10.297 10.9043C10.2967 10.9304 10.288 10.9557 10.272 10.9763C10.256 10.9969 10.2337 11.0116 10.2084 11.0183C10.1868 11.0278 10.1627 11.03 10.1397 11.0247C10.1167 11.0194 10.096 11.0067 10.0808 10.9887C10.0363 10.9359 9.99809 10.8781 9.96682 10.8166C9.84726 10.569 9.68053 10.3472 9.47598 10.1635C9.30141 10.0021 9.08209 9.89738 8.84686 9.863C8.36894 9.79576 7.98942 9.96482 7.71019 10.3569C7.64674 10.443 7.61013 10.546 7.60496 10.6528C7.6066 10.7181 7.61334 10.7831 7.62509 10.8473C7.63573 10.9343 7.65814 11.0206 7.64333 11.1098C7.63967 11.1387 7.62917 11.1663 7.61269 11.1903C7.5962 11.2143 7.57422 11.2341 7.54858 11.2479C7.52293 11.2617 7.49436 11.2691 7.46524 11.2696C7.43612 11.2701 7.40731 11.2637 7.38119 11.2508C7.36103 11.2414 7.34322 11.2277 7.32908 11.2105C7.31494 11.1933 7.30484 11.1732 7.29951 11.1516C7.28014 11.0882 7.2657 11.0229 7.24899 10.9586C7.21029 10.7893 7.13061 10.6321 7.01694 10.5009C6.90327 10.3696 6.75909 10.2682 6.59707 10.2057C6.44511 10.1422 6.28175 10.135 6.11877 10.1457C5.94117 10.1535 5.76804 10.2038 5.61388 10.2923C5.42385 10.4083 5.27993 10.5866 5.20662 10.7968C5.14239 10.9812 5.09645 11.1714 5.06948 11.3648C5.06989 11.3688 5.07078 11.3727 5.07214 11.3765V11.3765ZM7.39601 11.783H5.05732C5.05732 12.158 5.06986 12.5307 5.09835 12.9038C5.16597 12.9038 5.22904 12.9038 5.2921 12.9038C5.61008 12.8977 5.9292 12.9159 6.24566 12.8737C6.4043 12.8563 6.55791 12.8076 6.69759 12.7303C6.83727 12.6531 6.96025 12.549 7.05941 12.4239C7.16405 12.2834 7.25059 12.1302 7.31699 11.9681C7.34396 11.9084 7.36828 11.8499 7.39601 11.783ZM5.16673 13.2973C5.20681 13.45 5.26007 13.5988 5.32591 13.7422C5.43456 13.9732 5.57437 14.1818 5.77648 14.3425C5.93525 14.4745 6.13217 14.5523 6.33836 14.5643C6.45978 14.5703 6.58149 14.5637 6.70154 14.5446C6.77343 14.5348 6.84256 14.5105 6.90469 14.4731C6.96682 14.4356 7.02064 14.3859 7.06283 14.3269C7.1882 14.1476 7.1863 13.9572 7.08525 13.7673C6.99673 13.6005 6.85427 13.4858 6.70192 13.3805C6.58831 13.3019 6.45163 13.2635 6.31366 13.2715C6.00328 13.284 5.69214 13.2897 5.38138 13.2973C5.31072 13.2989 5.24157 13.2973 5.16673 13.2973Z" fill="white"/>
<path d="M3.69596 12.8559C3.67963 12.8639 3.67013 12.8677 3.66177 12.873C3.47647 12.9931 3.26577 13.0684 3.04633 13.093C2.66984 13.1275 2.33933 13.0352 2.09087 12.7309C1.98251 12.6009 1.91779 12.4401 1.90586 12.2712C1.88752 12.0771 1.9135 11.8813 1.98184 11.6987C2.07491 11.4594 2.25081 11.3085 2.49243 11.2307C2.84848 11.1343 3.22424 11.1383 3.57819 11.2421C3.87414 11.3393 4.04814 11.546 4.11652 11.8453C4.15014 12.0144 4.16075 12.1871 4.14805 12.359C4.13475 12.6542 4.11804 12.949 4.10094 13.2442C4.08955 13.4425 4.06789 13.6408 4.06295 13.8395C4.04705 14.2321 4.13903 14.6215 4.32889 14.9655C4.37029 15.0392 4.40942 15.1144 4.44742 15.1896C4.47325 15.2413 4.45539 15.2721 4.39727 15.2755C4.32886 15.2795 4.26111 15.2602 4.20504 15.2208C4.05783 15.116 3.94008 14.9751 3.86312 14.8116C3.77061 14.6154 3.70762 14.4066 3.67621 14.192C3.6355 13.9793 3.62108 13.7624 3.63328 13.5462C3.64582 13.3798 3.66367 13.2141 3.67925 13.0481C3.68343 12.9854 3.68913 12.9243 3.69596 12.8559ZM3.01214 11.5521C2.91032 11.5642 2.80775 11.5692 2.70821 11.5901C2.48711 11.6337 2.33439 11.7857 2.30362 11.9931C2.29238 12.0686 2.29161 12.1453 2.30134 12.2211C2.30969 12.3105 2.34135 12.3961 2.39315 12.4694C2.44494 12.5428 2.51507 12.6012 2.59652 12.639C2.70641 12.6892 2.82698 12.7115 2.94755 12.7039C3.15513 12.7024 3.35703 12.6359 3.52501 12.514C3.69558 12.3901 3.75941 12.2184 3.72674 12.0125C3.69255 11.8001 3.56908 11.6638 3.36317 11.6011C3.24873 11.5724 3.13157 11.556 3.01366 11.5521H3.01214Z" fill="white"/>
<path d="M2.5768 0.278004C2.85375 0.37412 3.09802 0.457319 3.34116 0.543937C5.78471 1.40683 8.22762 2.27098 10.6699 3.1364C10.8041 3.18837 10.9525 3.18999 11.0878 3.14096C13.599 2.27782 16.1105 1.41708 18.6224 0.558754C19.149 0.379059 19.6786 0.209622 20.2081 0.0394246C20.5428 -0.0677084 20.6891 0.0417038 20.6891 0.389696C20.6891 2.35038 20.6914 4.31069 20.6849 6.27137C20.6849 6.43435 20.7366 6.49932 20.8874 6.54566C21.4983 6.73106 22.1031 6.93355 22.714 7.12084C22.8382 7.15883 22.8789 7.21164 22.8789 7.34498C22.8748 12.5246 22.8737 17.704 22.8755 22.8831V23.138C22.774 23.1095 22.6969 23.0901 22.6217 23.0658C19.0886 21.9398 15.5501 20.8198 12.0224 19.6782C11.5908 19.5388 11.2181 19.5429 10.788 19.6888C7.43615 20.8255 4.07628 21.9382 0.720583 23.0578C0.618769 23.0916 0.515815 23.1224 0.412481 23.1524C0.159845 23.2261 0.00294418 23.1144 0.00256427 22.8515C0.00028485 21.9788 -0.000474866 21.106 0.000284943 20.2332C0.000284943 16.9379 0.000284943 13.6429 0.000284943 10.3481C0.000284943 9.27249 0.000284943 8.19723 0.000284943 7.12236C0.000284943 6.8739 0.0595499 6.79336 0.286353 6.71738C0.987276 6.4826 1.68706 6.2425 2.39064 6.0157C2.53576 5.96897 2.58401 5.9059 2.58363 5.74976C2.57755 3.99803 2.57983 2.24629 2.58021 0.49417L2.5768 0.278004ZM0.57432 22.4819C0.6522 22.461 0.706527 22.4496 0.758954 22.4321C4.09223 21.322 7.42539 20.2133 10.7584 19.1061C10.8997 19.0593 10.9195 18.9856 10.9195 18.8587C10.917 13.9066 10.9161 8.95514 10.9168 4.00448C10.9168 3.94446 10.91 3.88405 10.9054 3.80845C10.8295 3.83087 10.7774 3.84644 10.7246 3.86316C7.40398 4.96767 4.08235 6.0723 0.759713 7.17706C0.61307 7.22569 0.569761 7.29104 0.569761 7.443C0.57432 12.3818 0.575586 17.3205 0.57356 22.2593L0.57432 22.4819ZM14.6912 16.4752L15.3663 14.8591C15.4134 14.869 15.4422 14.8732 15.473 14.8819C16.4467 15.1763 17.4212 15.4689 18.3926 15.7716C18.4579 15.7922 18.5271 15.8814 18.5476 15.9525C18.7102 16.517 18.8595 17.0853 19.0183 17.6514C19.035 17.7114 19.0749 17.7961 19.1228 17.8117C19.5946 17.9637 20.0702 18.105 20.5732 18.2581C20.5493 18.1593 20.5352 18.0932 20.517 18.0279C19.6995 15.0808 18.8815 12.1339 18.0632 9.18714C18.0043 8.97439 17.9971 8.70542 17.8603 8.56789C17.7179 8.42429 17.4481 8.40529 17.2324 8.33767C16.9577 8.25143 16.6811 8.17051 16.3985 8.08542C15.3176 10.7375 14.2459 13.3661 13.1693 16.0133L14.6912 16.4752ZM20.101 0.680703L11.6292 3.5581L11.6383 3.60179L20.1014 6.29493L20.101 0.680703Z" fill="white"/>
<path d="M18.5613 23.3268L17.7437 25.6936L17.1515 24.7286C16.827 24.9038 16.5193 25.0755 16.2067 25.2377C14.8428 25.9451 13.3927 26.3751 11.8621 26.4826C10.0625 26.6118 8.25806 26.3105 6.59812 25.6035C5.98344 25.3445 5.39801 25.0143 4.80611 24.7032C4.60173 24.5957 4.55804 24.4372 4.64238 24.283C4.72292 24.1345 4.88096 24.1041 5.09104 24.2108C5.59783 24.4684 6.08639 24.767 6.61066 24.9854C10.0963 26.4416 13.4744 26.249 16.726 24.2838C16.7579 24.2648 16.7875 24.242 16.8358 24.2078L16.1987 23.144L18.5613 23.3268Z" fill="white"/>
<path d="M15.9509 13.3862C16.3263 12.4797 16.6891 11.6029 17.0526 10.7269L17.0952 10.7291L18.0199 14.0153L15.9509 13.3862Z" fill="white"/>
</svg>
