<svg width="4" height="18" viewBox="0 0 4 18" fill="none" xmlns="http://www.w3.org/2000/svg">
<path d="M1.965 5.105C1.585 5.105 1.27 4.99 1.02 4.76C0.78 4.52 0.66 4.225 0.66 3.875C0.66 3.525 0.78 3.235 1.02 3.005C1.27 2.765 1.585 2.645 1.965 2.645C2.335 2.645 2.64 2.765 2.88 3.005C3.12 3.235 3.24 3.525 3.24 3.875C3.24 4.225 3.12 4.52 2.88 4.76C2.64 4.99 2.335 5.105 1.965 5.105ZM1.965 11.105C1.585 11.105 1.27 10.99 1.02 10.76C0.78 10.52 0.66 10.225 0.66 9.875C0.66 9.525 0.78 9.235 1.02 9.005C1.27 8.765 1.585 8.645 1.965 8.645C2.335 8.645 2.64 8.765 2.88 9.005C3.12 9.235 3.24 9.525 3.24 9.875C3.24 10.225 3.12 10.52 2.88 10.76C2.64 10.99 2.335 11.105 1.965 11.105ZM1.965 17.105C1.585 17.105 1.27 16.99 1.02 16.76C0.78 16.52 0.66 16.225 0.66 15.875C0.66 15.525 0.78 15.235 1.02 15.005C1.27 14.765 1.585 14.645 1.965 14.645C2.335 14.645 2.64 14.765 2.88 15.005C3.12 15.235 3.24 15.525 3.24 15.875C3.24 16.225 3.12 16.52 2.88 16.76C2.64 16.99 2.335 17.105 1.965 17.105Z" fill="black"/>
</svg>
