<svg width="33" height="23" viewBox="0 0 33 23" fill="none" xmlns="http://www.w3.org/2000/svg">
<path d="M12.1575 7.33228H23.4622C23.4714 7.37306 23.4779 7.41438 23.4817 7.456C23.4855 7.84883 23.4908 8.24165 23.4897 8.63558C23.4897 8.84269 23.4622 8.86903 23.2532 8.87808C23.0798 8.88576 22.9059 8.88878 22.732 8.88329C22.6428 8.88055 22.6074 8.91292 22.5775 8.99467C22.3199 9.70159 22.0588 10.4069 21.7055 11.0743C21.2117 12.0056 20.5344 12.7669 19.6552 13.349C19.4588 13.479 19.2643 13.612 19.0465 13.7591C19.1598 13.8331 19.2481 13.8946 19.34 13.9511C19.791 14.2211 20.2078 14.5446 20.5813 14.9145C21.4125 15.746 21.768 16.7426 21.6358 17.9142C21.5261 18.8891 21.1291 19.7094 20.3432 20.3153C19.7608 20.7644 19.095 21.0069 18.3599 21.056C17.4491 21.1166 16.5493 21.1029 15.6605 20.8344C14.6135 20.5178 13.7595 19.9214 13.0238 19.1336C12.293 18.3523 11.8255 17.4163 11.4626 16.4241C11.0736 15.3597 10.8687 14.2531 10.745 13.1298C10.5968 11.784 10.5804 10.4327 10.5842 9.0808C10.5842 9.02182 10.5842 8.96312 10.5842 8.88247C10.3801 8.88247 10.1851 8.88878 9.9906 8.88247C9.56952 8.86656 9.61451 8.89481 9.60216 8.49842C9.59036 8.12095 9.59969 7.74294 9.59969 7.33887H10.568C10.6298 6.94851 10.68 6.58311 10.7466 6.22073C10.9307 5.21891 11.2621 4.27306 11.8486 3.42979C12.7058 2.19507 13.8892 1.48184 15.3621 1.23495C16.3573 1.07036 17.3446 1.09066 18.3151 1.39735C19.109 1.64835 19.7965 2.07657 20.3953 2.651L20.775 3.01502C20.82 2.94836 20.8586 2.89432 20.894 2.83836C21.6726 1.60391 22.763 0.755713 24.128 0.254803C24.6659 0.0572925 25.2253 -0.0137566 25.797 0.00215398C26.705 0.0271172 27.58 0.196922 28.4151 0.568626C29.4932 1.04924 30.3485 1.80307 31.0543 2.73576C31.5226 3.35435 31.9223 4.01382 32.1105 4.77534C32.1694 5.01509 32.1793 5.27103 32.1801 5.51984C32.1801 5.73683 32.043 5.87865 31.84 5.95437C31.651 6.02487 31.468 5.9818 31.3511 5.84025C31.1824 5.6383 31.0379 5.41735 30.9205 5.18188C30.4624 4.23344 29.8235 3.3836 29.0397 2.68007C28.3501 2.06066 27.5466 1.65768 26.6282 1.52793C24.7968 1.27006 23.3432 1.91801 22.2733 3.42074C22.0347 3.75623 21.8849 4.14056 21.8695 4.55423C21.8602 4.80112 21.9156 5.05158 21.9466 5.29956C21.988 5.63369 22.0736 5.96424 22.0163 6.3055C21.934 6.79571 21.4676 7.04616 21.012 6.84536C20.8452 6.7713 20.7481 6.63194 20.6984 6.46652C20.6252 6.22238 20.569 5.97275 20.5064 5.72586C20.1538 4.34859 19.321 3.38691 18.0079 2.84083C17.422 2.59778 16.8009 2.57035 16.1752 2.6104C15.488 2.65484 14.8335 2.8197 14.2352 3.17467C13.4753 3.62593 12.9859 4.29637 12.6737 5.10727C12.4035 5.80925 12.2765 6.54745 12.1484 7.28455C12.1496 7.30075 12.1527 7.31676 12.1575 7.33228ZM21.0625 8.88987H12.1001C12.1001 10.3268 12.1481 11.7554 12.2568 13.1841C12.516 13.1841 12.7577 13.1882 12.9993 13.1841C14.2179 13.1608 15.4408 13.2296 16.6533 13.0683C17.9078 12.901 18.9716 12.3488 19.7723 11.3456C20.1945 10.8173 20.4828 10.2105 20.7599 9.59872C20.8625 9.37103 20.956 9.13978 21.0625 8.88987ZM12.519 14.6931C12.6738 15.2779 12.8792 15.8481 13.1329 16.3972C13.5485 17.2833 14.084 18.0818 14.8584 18.6979C15.4894 19.1997 16.207 19.5083 17.0124 19.5483C17.4775 19.5711 17.9437 19.5456 18.4035 19.4721C18.9628 19.3818 19.456 19.113 19.788 18.6381C20.2691 17.9504 20.2612 17.2221 19.8744 16.494C19.5348 15.8543 18.9883 15.414 18.4057 15.0111C17.953 14.6981 17.4601 14.5722 16.9079 14.5941C15.7173 14.6416 14.5257 14.663 13.3343 14.6923C13.0704 14.6989 12.8065 14.6931 12.519 14.6931Z" fill="white"/>
<path d="M6.88335 13.0014C6.82217 13.0318 6.78569 13.0466 6.7525 13.0669C6.02363 13.513 5.2473 13.8315 4.3895 13.9099C2.94547 14.0419 1.67921 13.6877 0.727314 12.5224C0.312401 12.0238 0.0643826 11.4075 0.0181945 10.7605C-0.0385899 10.0088 0.0321849 9.27337 0.306506 8.56589C0.663123 7.64829 1.33685 7.07002 2.26351 6.77211C3.0349 6.52522 3.82933 6.4731 4.63227 6.50876C5.2451 6.53619 5.85053 6.61547 6.4362 6.80804C7.57025 7.18085 8.23602 7.96787 8.49828 9.12057C8.64668 9.77373 8.64997 10.4348 8.62007 11.0957C8.5685 12.2264 8.50486 13.3566 8.43902 14.4868C8.39458 15.2478 8.31146 16.0074 8.29199 16.7686C8.25331 18.2917 8.55478 19.7423 9.30697 21.084C9.46498 21.3665 9.61503 21.6537 9.76042 21.9429C9.86 22.1407 9.79142 22.2589 9.5684 22.2721C9.306 22.2871 9.04627 22.2127 8.83157 22.0611C8.2459 21.6628 7.83332 21.1174 7.51867 20.4934C7.14121 19.7442 6.94589 18.9388 6.8027 18.1188C6.6595 17.2989 6.57638 16.4729 6.6381 15.6382C6.68556 15.0012 6.75387 14.3659 6.81312 13.7297C6.83534 13.4971 6.85811 13.2628 6.88335 13.0014ZM4.2688 8.00546C3.87953 8.05072 3.48561 8.07102 3.10266 8.147C2.25528 8.31544 1.67153 8.89727 1.5522 9.69253C1.51015 9.98142 1.50729 10.2747 1.54369 10.5643C1.63422 11.2926 2.00729 11.8355 2.67581 12.168C3.10238 12.38 3.55364 12.4278 4.01999 12.4174C4.8328 12.399 5.57731 12.1688 6.23376 11.6901C6.89021 11.2114 7.13216 10.5569 7.00597 9.76769C6.87594 8.95433 6.40246 8.4312 5.61352 8.19172C5.17597 8.05895 4.72444 8.04221 4.2688 8.00546Z" fill="white"/>
</svg>
