<svg width="17" height="20" viewBox="0 0 17 20" fill="none" xmlns="http://www.w3.org/2000/svg">
<path d="M12.0183 4.2632C12.2135 4.45846 12.2135 4.77505 12.0183 4.97031L8.8363 8.15229C8.64103 8.34755 8.32445 8.34755 8.12919 8.15229C7.93393 7.95703 7.93393 7.64044 8.12919 7.44518L10.9576 4.61676L8.12919 1.78833C7.93393 1.59307 7.93393 1.27648 8.12919 1.08122C8.32445 0.885959 8.64103 0.88596 8.8363 1.08122L12.0183 4.2632ZM4.88399 4.61663L4.95547 5.11149L4.88399 4.61663ZM11.6647 5.11676C10.781 5.11676 9.59037 5.03704 8.4157 4.99877C7.21597 4.95968 5.99552 4.96126 4.95547 5.11149L4.8125 4.12177C5.9445 3.95825 7.23857 3.95989 8.44826 3.9993C9.68303 4.03953 10.7967 4.11676 11.6647 4.11676L11.6647 5.11676ZM4.95547 5.11149C3.81265 5.27658 2.71352 6.16992 2.14322 7.66168C1.57585 9.1458 1.54332 11.2148 2.57496 13.631L1.65528 14.0237C0.539666 11.4108 0.534044 9.0705 1.20915 7.30459C1.88133 5.54633 3.24027 4.34888 4.8125 4.12177L4.95547 5.11149Z" fill="#181818"/>
<path d="M5.30911 16.1462C5.10227 15.9632 5.08291 15.6472 5.26587 15.4404L8.24734 12.0698C8.43029 11.863 8.74628 11.8436 8.95312 12.0266C9.15996 12.2095 9.17931 12.5255 8.99636 12.7323L6.34616 15.7284L9.34224 18.3786C9.54908 18.5616 9.56844 18.8776 9.38548 19.0844C9.20252 19.2912 8.88653 19.3106 8.67969 19.1276L5.30911 16.1462ZM12.4084 15.3572L12.3068 14.8676L12.4084 15.3572ZM5.60981 15.2726C6.49185 15.2186 7.68516 15.2253 8.85997 15.1917C10.0598 15.1574 11.2779 15.0812 12.3068 14.8676L12.51 15.8467C11.3902 16.0792 10.0984 16.1567 8.88858 16.1913C7.65366 16.2266 6.53734 16.2176 5.67095 16.2707L5.60981 15.2726ZM12.3068 14.8676C13.4374 14.633 14.4799 13.6741 14.9579 12.1502C15.4335 10.6342 15.3394 8.5671 14.162 6.21847L15.0559 5.7703C16.3292 8.31011 16.4779 10.6457 15.912 12.4495C15.3486 14.2456 14.0655 15.5239 12.51 15.8467L12.3068 14.8676Z" fill="#181818"/>
</svg>
