<svg width="29" height="22" viewBox="0 0 29 22" fill="none" xmlns="http://www.w3.org/2000/svg">
<path d="M19.6828 11.6046H22.9097C22.9122 11.6163 22.9141 11.6281 22.9154 11.64C22.9154 11.752 22.9179 11.8641 22.9176 11.9761C22.9176 12.0351 22.9094 12.0427 22.8501 12.0455C22.8005 12.0474 22.751 12.0484 22.7014 12.0455C22.6914 12.0441 22.6813 12.0467 22.6731 12.0525C22.665 12.0584 22.6594 12.0672 22.6575 12.0771C22.5881 12.2804 22.5049 12.4788 22.4085 12.6708C22.2717 12.9334 22.0703 13.1568 21.8233 13.32C21.7672 13.3569 21.7116 13.3951 21.6494 13.4368C21.681 13.4579 21.7072 13.4756 21.7334 13.4917C21.8622 13.5686 21.9811 13.6609 22.0875 13.7666C22.3249 14.004 22.4265 14.2883 22.3886 14.6229C22.3571 14.901 22.2441 15.1352 22.0197 15.3081C21.8567 15.4343 21.6592 15.508 21.4534 15.5196C21.1937 15.537 20.9368 15.5328 20.683 15.4565C20.3841 15.3662 20.1404 15.1961 19.9306 14.9714C19.7207 14.7466 19.5884 14.4831 19.4849 14.199C19.379 13.895 19.3102 13.5793 19.2801 13.2588C19.2429 12.8747 19.2276 12.4888 19.2343 12.103V12.0465C19.1759 12.0465 19.1204 12.0484 19.0648 12.0465C18.9446 12.0421 18.9572 12.05 18.9537 11.9363C18.9505 11.8287 18.9537 11.7208 18.9537 11.6056H19.2283C19.246 11.4941 19.2599 11.3897 19.2791 11.2865C19.3318 11.0002 19.4262 10.7303 19.5947 10.4898C19.839 10.1382 20.1771 9.93434 20.5968 9.86427C20.8775 9.81213 21.1666 9.82804 21.4399 9.91067C21.6629 9.98208 21.8662 10.1046 22.0335 10.2686L22.1421 10.3724C22.1547 10.3535 22.1658 10.338 22.1759 10.3219C22.391 9.97844 22.7166 9.71842 23.0991 9.58463C23.2518 9.53026 23.4134 9.50572 23.5754 9.51235C23.8328 9.51627 24.0868 9.57131 24.3228 9.67427C24.6305 9.81125 24.8745 10.0262 25.0761 10.2923C25.2097 10.469 25.3239 10.6571 25.3776 10.8746C25.3924 10.9444 25.3991 11.0157 25.3975 11.087C25.3975 11.1501 25.3583 11.1893 25.3002 11.211C25.2767 11.2216 25.2504 11.2242 25.2252 11.2185C25.2001 11.2128 25.1775 11.1991 25.1607 11.1795C25.1126 11.1213 25.0714 11.0578 25.038 10.9901C24.9073 10.7193 24.7251 10.4767 24.5014 10.2758C24.3104 10.0993 24.0704 9.98471 23.813 9.94728C23.2904 9.87374 22.8753 10.0584 22.5701 10.4873C22.5006 10.5814 22.4604 10.694 22.4546 10.8108C22.4563 10.8822 22.4637 10.9533 22.4767 11.0236C22.4887 11.1182 22.513 11.2129 22.4966 11.3108C22.4927 11.3424 22.4813 11.3727 22.4633 11.399C22.4453 11.4253 22.4212 11.4469 22.3932 11.462C22.3651 11.4771 22.3338 11.4852 22.3019 11.4857C22.27 11.4862 22.2385 11.479 22.21 11.4648C22.188 11.4546 22.1685 11.4396 22.153 11.4209C22.1375 11.4023 22.1263 11.3804 22.1203 11.3568C22.0995 11.2871 22.0834 11.2158 22.0654 11.1454C21.9648 10.7525 21.7272 10.478 21.3524 10.3219C21.1852 10.2525 21.0075 10.2446 20.8291 10.2563C20.6344 10.2649 20.4445 10.3201 20.2755 10.4172C20.0587 10.546 19.9189 10.7373 19.8299 10.9689C19.7525 11.1694 19.7162 11.3793 19.68 11.5904C19.6793 11.5929 19.6809 11.5955 19.6828 11.6046ZM22.2248 12.049H19.6667C19.6667 12.4593 19.6803 12.8671 19.7112 13.2749C19.7854 13.2749 19.8542 13.2749 19.9233 13.2749C20.2705 13.2683 20.6205 13.2881 20.9649 13.2433C21.3231 13.1953 21.6277 13.0379 21.8552 12.7516C21.9758 12.6007 22.0578 12.4274 22.1371 12.2529C22.1677 12.1866 22.1951 12.1203 22.2248 12.049ZM19.786 13.7057C19.8303 13.8726 19.889 14.0354 19.9615 14.1921C20.0802 14.4446 20.2329 14.6728 20.4539 14.8486C20.6277 14.993 20.8431 15.078 21.0687 15.0913C21.2014 15.0979 21.3345 15.0906 21.4657 15.0695C21.5445 15.0588 21.6202 15.0321 21.6882 14.9909C21.7562 14.9498 21.8149 14.8951 21.8609 14.8303C21.9982 14.634 21.996 14.4263 21.8855 14.2183C21.7886 14.0359 21.633 13.9102 21.4664 13.795C21.3413 13.7084 21.1906 13.6665 21.0387 13.676C20.6991 13.6896 20.3589 13.6956 20.0189 13.7041C19.9435 13.7073 19.8681 13.7057 19.786 13.7057Z" fill="white"/>
<path d="M18.1776 13.2228C18.1649 13.2284 18.1524 13.2346 18.1403 13.2414C17.932 13.3677 17.7105 13.4595 17.4659 13.4819C17.0537 13.5198 16.6923 13.4188 16.4205 13.0858C16.3021 12.9436 16.2313 12.7677 16.2182 12.583C16.1978 12.3708 16.2259 12.1567 16.3003 11.9568C16.4022 11.6952 16.5944 11.5298 16.8589 11.4449C17.2493 11.3383 17.6616 11.3419 18.0501 11.4553C18.3736 11.5617 18.5636 11.7861 18.6384 12.1153C18.6756 12.3008 18.6873 12.4906 18.6731 12.6793C18.6586 13.0019 18.6416 13.3244 18.6217 13.647C18.609 13.8645 18.5851 14.081 18.5797 14.2985C18.5686 14.7331 18.6548 15.1472 18.8691 15.5294C18.9143 15.6099 18.9572 15.6919 18.9985 15.7743C19.0269 15.8308 19.0074 15.8646 18.9439 15.869C18.869 15.8734 18.7949 15.8521 18.7337 15.8087C18.5723 15.6945 18.4432 15.5404 18.3591 15.3615C18.2511 15.1475 18.1953 14.9177 18.1546 14.6835C18.1097 14.4504 18.0939 14.2126 18.1075 13.9756C18.1211 13.7938 18.1391 13.6123 18.1577 13.4308C18.1637 13.3642 18.1703 13.2973 18.1776 13.2228ZM17.4311 11.7965C17.3204 11.8098 17.2077 11.8154 17.0985 11.8372C16.8567 11.8852 16.6901 12.0512 16.6566 12.2791C16.6446 12.3616 16.6437 12.4454 16.6541 12.5281C16.6631 12.626 16.6978 12.7199 16.7545 12.8002C16.8112 12.8805 16.888 12.9445 16.9773 12.9858C17.0972 13.0409 17.229 13.0653 17.3608 13.0568C17.5877 13.0552 17.8084 12.9827 17.992 12.8494C18.1782 12.7137 18.2483 12.5259 18.2129 12.3006C18.1757 12.0686 18.0403 11.9193 17.8156 11.8508C17.6903 11.812 17.5615 11.8072 17.4311 11.7965Z" fill="white"/>
<path d="M0.000946829 2.49137C0.0473433 2.41404 0.108574 2.34208 0.13698 2.25875C0.63882 0.790792 1.63398 0.0219358 3.17043 0.0137296C6.63954 -0.00457652 10.1085 -0.00457652 13.5774 0.0137296C15.4904 0.0263545 16.7311 1.30778 16.7394 3.2113C16.7466 4.94722 16.758 6.68062 16.734 8.41465C16.7116 10.0559 15.3875 11.372 13.8205 11.3184V10.154C15.2439 9.87977 15.5315 8.84832 15.4879 7.55048C15.4409 6.14596 15.4854 4.73828 15.4747 3.33187C15.4646 2.00404 14.8002 1.33429 13.496 1.3324C10.074 1.32798 6.65195 1.32798 3.22976 1.3324C1.99537 1.33493 1.32151 1.98448 1.301 3.23403C1.27511 4.87526 1.27511 6.5165 1.301 8.15773C1.31867 9.43822 2.00799 10.0928 3.27679 10.0976C3.95538 10.1004 4.63397 10.0976 5.40661 10.0976V12.1229L5.57515 12.186C6.04859 11.6277 6.49614 11.0422 7.01124 10.5246C7.22712 10.3078 7.58157 10.1392 7.88551 10.1165C8.65058 10.0594 9.42291 10.0976 10.2385 10.0976V11.372C9.68487 11.372 9.15053 11.397 8.61965 11.3645C8.16042 11.3361 7.83785 11.4664 7.54432 11.8458C6.95663 12.6049 6.34086 13.3478 5.67174 14.0343C5.45238 14.2593 4.95464 14.4664 4.72487 14.3644C4.44081 14.2382 4.17979 13.7992 4.13371 13.4643C4.04281 12.8037 4.10688 12.1216 4.10688 11.3717C3.75243 11.3717 3.47784 11.3742 3.20357 11.3717C1.62009 11.3547 0.678588 10.6796 0.14203 9.18509C0.113308 9.10492 0.0473434 9.03769 0 8.96415L0.000946829 2.49137Z" fill="white"/>
<path d="M14.3324 6.89113V8.05231C12.991 8.53111 12.6634 8.99128 12.6634 10.3863C12.6634 11.8868 12.6568 13.3876 12.6634 14.8881C12.6706 16.2433 13.3366 16.9033 14.7017 16.908C16.4834 16.915 18.2657 16.9263 20.0474 16.8995C20.5587 16.8919 20.9286 17.0062 21.2436 17.4392C21.6384 17.983 22.1103 18.4707 22.6888 19.1455V16.9046C23.512 16.9046 24.2313 16.9147 24.9502 16.902C26.1114 16.8818 26.8017 16.2531 26.8285 15.0878C26.8681 13.3772 26.8681 11.6657 26.8285 9.9533C26.8033 8.77035 26.0773 8.12206 24.8865 8.11859C22.7996 8.11228 20.7127 8.11669 18.6261 8.11669H17.8926V6.8542H18.5453C20.7023 6.8542 22.8596 6.85073 25.0156 6.8542C26.8178 6.85799 28.1052 8.13121 28.1245 9.95172C28.1418 11.6163 28.1339 13.2812 28.127 14.9458C28.1188 16.9226 26.8434 18.2043 24.8799 18.2213C24.6274 18.2236 24.3749 18.2213 24.0324 18.2213C24.0324 18.9053 24.0289 19.5305 24.0324 20.1558C24.0362 20.6352 23.9257 21.0452 23.4132 21.2163C22.9208 21.3807 22.626 21.0948 22.3426 20.7511C21.7612 20.046 21.1931 19.3257 20.5609 18.668C20.3368 18.435 19.9454 18.2494 19.6254 18.2412C17.9841 18.1989 16.3429 18.2248 14.7017 18.2204C12.6624 18.2153 11.4028 16.9677 11.399 14.9499C11.3955 13.2383 11.3829 11.5267 11.404 9.81506C11.4268 8.18045 12.7227 6.87819 14.3324 6.89113Z" fill="white"/>
<path d="M10.9722 7.93043C9.79966 8.18955 9.73685 8.14063 9.32023 7.15652C9.23849 6.96273 8.96831 6.80934 8.75211 6.72475C8.56873 6.65342 8.3336 6.73043 8.12529 6.70613C7.38105 6.61807 6.84986 6.73106 6.66774 7.63721C6.50993 8.41491 5.80546 7.84742 5.27269 8.12864C5.35002 7.80197 5.3718 7.62711 5.43208 7.46583C6.04281 5.84763 6.68826 4.24175 7.25764 2.60935C7.43849 2.09078 7.75222 2.10435 8.16348 2.08731C8.58578 2.07026 8.84427 2.16053 9.00366 2.60808C9.63617 4.38883 10.3103 6.15379 10.9722 7.93043ZM8.1155 3.60103L7.38357 5.69361H8.82912C8.60282 5.02954 8.39546 4.42165 8.1155 3.60103Z" fill="white"/>
</svg>
