<svg width="19" height="15" viewBox="0 0 19 15" fill="none" xmlns="http://www.w3.org/2000/svg">
<path d="M3.04688 6.53924e-09H15.7031C16.4814 -5.09501e-05 17.2302 0.297707 17.7958 0.832192C18.3615 1.36668 18.7013 2.09737 18.7453 2.87437L18.75 3.04688V11.9531C18.7501 12.7314 18.4523 13.4802 17.9178 14.0458C17.3833 14.6115 16.6526 14.9513 15.8756 14.9953L15.7031 15H3.04688C2.26862 15.0001 1.51985 14.7023 0.954159 14.1678C0.388469 13.6333 0.0487488 12.9026 0.00468761 12.1256L6.53923e-09 11.9531V3.04688C-5.09501e-05 2.26862 0.297707 1.51985 0.832192 0.954159C1.36668 0.388469 2.09737 0.0487488 2.87437 0.00468761L3.04688 6.53924e-09H15.7031H3.04688ZM17.3438 5.03719L9.70312 9.05906C9.61685 9.10464 9.52204 9.13176 9.42471 9.1387C9.32738 9.14564 9.22968 9.13225 9.13781 9.09938L9.04781 9.06L1.40625 5.03812V11.9531C1.40627 12.3649 1.5611 12.7615 1.84001 13.0644C2.11893 13.3673 2.50153 13.5542 2.91188 13.5881L3.04688 13.5938H15.7031C16.115 13.5937 16.5118 13.4388 16.8147 13.1596C17.1176 12.8805 17.3045 12.4977 17.3381 12.0872L17.3438 11.9531V5.03719ZM15.7031 1.40625H3.04688C2.63513 1.40627 2.23845 1.5611 1.93557 1.84001C1.63269 2.11893 1.44576 2.50153 1.41188 2.91188L1.40625 3.04688V3.44906L9.375 7.6425L17.3438 3.44812V3.04688C17.3437 2.63499 17.1888 2.23818 16.9096 1.93527C16.6305 1.63237 16.2477 1.44553 15.8372 1.41188L15.7031 1.40625Z" fill="white"/>
</svg>
