<svg width="20" height="20" viewBox="0 0 20 20" fill="none" xmlns="http://www.w3.org/2000/svg">
<path d="M19.7067 9.84968C19.706 7.96671 19.1658 6.12337 18.15 4.53789C17.1342 2.95241 15.6854 1.69118 13.9751 0.903514C12.2648 0.115851 10.3646 -0.165261 8.49952 0.093459C6.6344 0.352179 4.88248 1.1399 3.45114 2.36336C2.01981 3.58682 0.969004 5.19478 0.423132 6.99689C-0.12274 8.799 -0.140819 10.7198 0.371035 12.5319C0.882889 14.3439 1.90324 15.9714 3.31129 17.2216C4.71934 18.4717 6.45613 19.2923 8.31604 19.5861V12.7015H5.8151V9.84968H8.31604V7.68294C8.31604 5.20985 9.78653 3.8452 12.0368 3.8452C12.7833 3.85436 13.5281 3.91952 14.2648 4.04015V6.46311H13.0004C12.788 6.43538 12.5721 6.45586 12.3687 6.52303C12.1653 6.5902 11.9796 6.70233 11.8255 6.8511C11.6714 6.99987 11.5528 7.18145 11.4785 7.38235C11.4042 7.58326 11.3761 7.79832 11.3963 8.01157V9.84968H14.1256L13.6911 12.7015H11.3963V19.5861C13.7135 19.2176 15.8233 18.0347 17.3466 16.2501C18.8698 14.4654 19.7067 12.196 19.7067 9.84968Z" fill="white"/>
<path d="M13.691 12.7015L14.1254 9.84964H11.3961V8.01153C11.3777 7.79916 11.4071 7.58537 11.4822 7.38587C11.5573 7.18637 11.6762 7.00625 11.8301 6.85876C11.984 6.71127 12.169 6.60016 12.3715 6.53361C12.574 6.46706 12.7889 6.44676 13.0003 6.47421H14.2424V4.0401C13.5056 3.91948 12.7609 3.85431 12.0144 3.84515C9.78637 3.84515 8.2936 5.20981 8.2936 7.6829V9.84964H5.81494V12.7015H8.31588V19.586C9.3367 19.742 10.3753 19.742 11.3961 19.586V12.7015H13.691Z" fill="#2C203F"/>
</svg>
