<svg width="20" height="20" viewBox="0 0 20 20" fill="none" xmlns="http://www.w3.org/2000/svg">
<path d="M9.85337 19.7067C15.2952 19.7067 19.7067 15.2952 19.7067 9.85337C19.7067 4.4115 15.2952 0 9.85337 0C4.41151 0 0 4.4115 0 9.85337C0 15.2952 4.41151 19.7067 9.85337 19.7067Z" fill="white"/>
<path d="M12.9112 6.12701C12.7768 6.12701 12.6454 6.16687 12.5337 6.24154C12.4219 6.31621 12.3348 6.42233 12.2834 6.5465C12.232 6.67067 12.2185 6.80731 12.2447 6.93913C12.271 7.07095 12.3357 7.19203 12.4307 7.28706C12.5258 7.3821 12.6468 7.44682 12.7787 7.47304C12.9105 7.49926 13.0471 7.4858 13.1713 7.43437C13.2955 7.38294 13.4016 7.29584 13.4763 7.18409C13.5509 7.07234 13.5908 6.94096 13.5908 6.80656C13.5908 6.62633 13.5192 6.45349 13.3917 6.32605C13.2643 6.19861 13.0915 6.12701 12.9112 6.12701Z" fill="#2C203F"/>
<path d="M9.89243 6.99597C9.32948 6.99597 8.77919 7.1629 8.31112 7.47566C7.84305 7.78841 7.47823 8.23294 7.26281 8.75303C7.04738 9.27312 6.99101 9.84541 7.10083 10.3975C7.21066 10.9497 7.48174 11.4568 7.8798 11.8549C8.27786 12.2529 8.78502 12.524 9.33715 12.6338C9.88927 12.7437 10.4616 12.6873 10.9817 12.4719C11.5017 12.2564 11.9463 11.8916 12.259 11.4236C12.5718 10.9555 12.7387 10.4052 12.7387 9.84225C12.7387 9.08737 12.4388 8.36341 11.9051 7.82963C11.3713 7.29585 10.6473 6.99597 9.89243 6.99597ZM9.89243 11.6637C9.53219 11.6637 9.18004 11.5568 8.88051 11.3567C8.58098 11.1566 8.34753 10.8721 8.20967 10.5393C8.07182 10.2065 8.03575 9.84023 8.10603 9.48692C8.1763 9.1336 8.34978 8.80906 8.6045 8.55433C8.85923 8.2996 9.18377 8.12613 9.53709 8.05585C9.8904 7.98557 10.2566 8.02164 10.5894 8.1595C10.9223 8.29736 11.2067 8.53081 11.4069 8.83034C11.607 9.12986 11.7138 9.48202 11.7138 9.84225C11.7138 10.0814 11.6667 10.3183 11.5752 10.5393C11.4836 10.7603 11.3495 10.961 11.1803 11.1302C11.0112 11.2993 10.8104 11.4335 10.5894 11.525C10.3685 11.6165 10.1316 11.6637 9.89243 11.6637Z" fill="#2C203F"/>
<path d="M12.1593 15.6185H7.54727C6.62739 15.617 5.74561 15.251 5.09515 14.6005C4.4447 13.9501 4.07862 13.0683 4.07715 12.1484V7.53641C4.07862 6.61653 4.4447 5.73474 5.09515 5.08429C5.74561 4.43383 6.62739 4.06776 7.54727 4.06628H12.1593C12.615 4.06628 13.0662 4.15604 13.4872 4.33043C13.9082 4.50482 14.2908 4.76043 14.613 5.08266C14.9352 5.40489 15.1908 5.78744 15.3652 6.20845C15.5396 6.62947 15.6294 7.08071 15.6294 7.53641V12.1484C15.6294 13.0687 15.2638 13.9514 14.613 14.6021C13.9622 15.2529 13.0796 15.6185 12.1593 15.6185ZM7.54727 5.15244C6.915 5.15244 6.30863 5.40361 5.86155 5.85069C5.41447 6.29777 5.1633 6.90414 5.1633 7.53641V12.1484C5.1633 12.7807 5.41447 13.387 5.86155 13.8341C6.30863 14.2812 6.915 14.5324 7.54727 14.5324H12.1593C12.7915 14.5324 13.3979 14.2812 13.845 13.8341C14.2921 13.387 14.5432 12.7807 14.5432 12.1484V7.53641C14.5432 6.90414 14.2921 6.29777 13.845 5.85069C13.3979 5.40361 12.7915 5.15244 12.1593 5.15244H7.54727Z" fill="#2C203F"/>
</svg>
