<svg width="30" height="30" viewBox="0 0 30 30" fill="none" xmlns="http://www.w3.org/2000/svg">
<path d="M14.8698 29.6893C6.78203 29.7063 0.00642731 23.1987 3.82578e-06 14.8569C-0.0058357 6.59341 6.674 -0.00350232 14.906 1.39501e-06C23.072 0.00350511 29.7039 6.69327 29.6969 14.9171C29.6922 23.0404 23.0183 29.6882 14.8698 29.6893ZM28.3988 14.6636C28.3211 7.21941 22.1914 1.19418 14.6525 1.29754C7.13649 1.40032 0.944839 7.6673 1.30806 15.5139C1.64033 22.6842 7.66205 28.6902 15.4275 28.3842C22.7631 28.0951 28.5208 21.9759 28.3988 14.6636Z" fill="#E7E5EA"/>
<path d="M21.309 12.7365C21.309 14.4709 21.3061 16.2058 21.309 17.9401C21.3136 19.9641 19.6155 21.4917 17.588 21.2786C16.6852 21.1834 15.8362 20.5125 15.5909 19.6955C15.4561 19.2639 15.4566 18.8014 15.5923 18.3701C15.728 17.9388 15.9924 17.5593 16.3501 17.2826C16.6068 17.0909 16.8966 16.948 17.205 16.861C17.9343 16.6467 18.6771 16.4785 19.4135 16.2893C19.8631 16.1725 20.0114 15.974 20.0109 15.5109C20.0109 14.2577 20.0109 13.0044 20.0109 11.7508C20.0109 11.2148 19.6798 10.9426 19.1571 11.0448C17.1242 11.4419 15.0912 11.8378 13.0583 12.2326C12.5503 12.3307 12.277 12.6495 12.277 13.1669C12.277 15.3859 12.277 17.605 12.277 19.824C12.2877 20.6083 12.029 21.3726 11.5441 21.9893C10.6051 23.1981 8.79137 23.6109 7.55806 22.8652C6.8141 22.415 6.39716 21.7434 6.46432 20.8605C6.5414 19.8432 7.08214 19.1314 8.06727 18.8283C8.81765 18.5977 9.58554 18.4318 10.3488 18.2362C10.8264 18.1136 10.9713 17.9238 10.9713 17.4268C10.9713 14.6577 10.9713 11.8886 10.9713 9.11954C10.9713 8.54843 11.2527 8.2255 11.8087 8.12156C13.4542 7.81499 15.0986 7.50023 16.7436 7.18724C17.998 6.94976 19.2523 6.71326 20.5066 6.47773C20.9487 6.3954 21.2827 6.64474 21.2973 7.10198C21.3195 7.80272 21.309 8.50347 21.3096 9.20888C21.3096 10.0883 21.3096 10.9681 21.3096 11.8483L21.309 12.7365Z" fill="#E7E5EA"/>
</svg>
