<svg width="20" height="20" viewBox="0 0 20 20" fill="none" xmlns="http://www.w3.org/2000/svg">
<path d="M9.85337 19.7067C15.2952 19.7067 19.7067 15.2952 19.7067 9.85337C19.7067 4.41151 15.2952 0 9.85337 0C4.41151 0 0 4.41151 0 9.85337C0 15.2952 4.41151 19.7067 9.85337 19.7067Z" fill="white"/>
<path d="M15.3009 6.47227C14.9452 6.62556 14.5705 6.73048 14.1869 6.78419C14.3595 6.75634 14.6158 6.43885 14.7439 6.31074C14.9032 6.11616 15.0242 5.89313 15.1004 5.65347C15.1004 5.65347 15.1004 5.60892 15.1004 5.59778C15.0921 5.59227 15.0824 5.58933 15.0725 5.58933C15.0626 5.58933 15.0529 5.59227 15.0447 5.59778C14.6355 5.8133 14.2016 5.97791 13.7524 6.08794C13.7389 6.09576 13.7235 6.09987 13.7079 6.09987C13.6922 6.09987 13.6768 6.09576 13.6633 6.08794C13.6305 6.04504 13.5931 6.00581 13.5519 5.97097C13.1173 5.58636 12.5497 5.38652 11.97 5.41396C11.6478 5.43337 11.3331 5.51907 11.0456 5.66571C10.758 5.81235 10.5039 6.01677 10.299 6.26618C10.0906 6.52359 9.94214 6.82424 9.86454 7.14624C9.80332 7.45141 9.80332 7.7657 9.86454 8.07087C9.86454 8.121 9.86454 8.12657 9.81998 8.121C8.10858 7.96064 6.51908 7.16589 5.36396 5.89299C5.31383 5.83172 5.28598 5.83172 5.24142 5.89299C5.00794 6.31742 4.91915 6.8064 4.9885 7.28582C5.05785 7.76525 5.28156 8.20902 5.62575 8.54989C5.7093 8.62787 5.79842 8.71142 5.89311 8.7894C5.59606 8.76634 5.30647 8.68495 5.0409 8.54989C4.99077 8.51647 4.96292 8.54989 4.95735 8.59445C4.94922 8.6778 4.94922 8.76175 4.95735 8.8451C5.00899 9.24369 5.16568 9.62138 5.41134 9.93947C5.65701 10.2576 5.98283 10.5046 6.35542 10.6554C6.44636 10.6959 6.54169 10.7258 6.63949 10.7445C6.36297 10.7914 6.08051 10.7914 5.80399 10.7445C5.74272 10.7445 5.71487 10.7445 5.74272 10.8225C5.88577 11.1982 6.12262 11.5312 6.43071 11.7895C6.73881 12.0479 7.10789 12.2231 7.50285 12.2985C7.58083 12.2985 7.65881 12.2985 7.74236 12.3319C7.54741 12.6383 6.86229 12.8889 6.53923 12.9725C5.95412 13.1808 5.33099 13.2606 4.71227 13.2064C4.61758 13.2064 4.59529 13.2064 4.56744 13.2064C4.53959 13.2064 4.56745 13.2454 4.5953 13.2733L4.97963 13.4961C5.3673 13.7031 5.77631 13.8675 6.19946 13.9862C7.28851 14.3144 8.44464 14.3507 9.55216 14.0917C10.6597 13.8326 11.6797 13.2873 12.5103 12.5102C13.1089 11.8612 13.5719 11.0993 13.8722 10.2691C14.1725 9.43891 14.3041 8.55711 14.2593 7.67539C14.2593 7.60855 14.3428 7.56957 14.3874 7.53058C14.717 7.27893 15.0063 6.97839 15.2452 6.63937C15.2857 6.59107 15.3075 6.52976 15.3065 6.4667C15.3454 6.44442 15.3454 6.45556 15.3009 6.47227Z" fill="#2C203F"/>
</svg>
