<svg width="20" height="20" viewBox="0 0 20 20" fill="none" xmlns="http://www.w3.org/2000/svg">
<path d="M9.85337 19.7067C15.2952 19.7067 19.7067 15.2952 19.7067 9.85337C19.7067 4.41151 15.2952 0 9.85337 0C4.41151 0 0 4.41151 0 9.85337C0 15.2952 4.41151 19.7067 9.85337 19.7067Z" fill="white"/>
<path d="M15.1281 8.44965C15.1303 8.13811 15.0708 7.82922 14.9531 7.54075C14.8354 7.25229 14.6618 6.98995 14.4423 6.76887C14.2228 6.5478 13.9617 6.37234 13.6741 6.25261C13.3864 6.13288 13.078 6.07125 12.7664 6.07126H6.7118C6.40118 6.07126 6.09362 6.13253 5.80673 6.25156C5.51983 6.37059 5.25923 6.54505 5.03986 6.76494C4.82048 6.98484 4.64663 7.24586 4.52828 7.53303C4.40992 7.82021 4.34937 8.12791 4.3501 8.43852V11.2514C4.34937 11.562 4.40992 11.8697 4.52828 12.1569C4.64663 12.4441 4.82048 12.7051 5.03986 12.9249C5.25923 13.1448 5.51983 13.3193 5.80673 13.4383C6.09362 13.5574 6.40118 13.6186 6.7118 13.6186H12.7664C13.077 13.6186 13.3846 13.5574 13.6715 13.4383C13.9584 13.3193 14.219 13.1448 14.4383 12.9249C14.6577 12.7051 14.8316 12.4441 14.9499 12.1569C15.0683 11.8697 15.1288 11.562 15.1281 11.2514V8.44965ZM11.5633 10.065L8.85068 11.4073C8.73928 11.4686 8.3828 11.4073 8.3828 11.2681V8.51093C8.3828 8.38839 8.74485 8.31598 8.85068 8.37168L11.4463 9.78647C11.5633 9.84774 11.6803 10.0093 11.5633 10.065Z" fill="#2C203F"/>
</svg>
